<?xml version="1.0" encoding="UTF-8" ?>
<!DOCTYPE svg PUBLIC "-//W3C//DTD SVG 1.1//EN" "http://www.w3.org/Graphics/SVG/1.1/DTD/svg11.dtd">
<svg width="322pt" height="150pt" viewBox="0 0 322 150" version="1.1" xmlns="http://www.w3.org/2000/svg">
<path fill="#ffffff" d=" M 0.00 0.00 L 322.00 0.00 L 322.00 150.00 L 0.00 150.00 L 0.00 0.00 Z" />
<path fill="#363636" d=" M 197.86 10.31 C 199.02 7.64 196.85 2.42 201.12 2.28 C 202.22 5.35 201.86 8.55 200.35 11.42 C 199.73 11.14 198.48 10.59 197.86 10.31 Z" />
<path fill="#363636" d=" M 174.34 9.19 C 174.95 8.76 176.17 7.92 176.78 7.49 C 178.80 9.46 180.93 11.30 182.94 13.28 C 179.29 16.22 176.44 11.80 174.34 9.19 Z" />
<path fill="#363636" d=" M 219.56 14.38 L 220.04 13.69 C 220.63 13.70 221.82 13.70 222.42 13.70 C 222.18 17.02 220.59 21.83 216.99 22.60 C 214.86 19.88 218.60 16.99 219.56 14.38 Z" />
<path fill="#363636" d=" M 192.55 20.52 C 195.51 19.14 198.98 19.35 202.14 19.86 C 205.93 20.61 209.66 23.88 209.43 28.01 C 209.79 30.82 208.63 33.59 206.64 35.55 C 202.21 40.00 195.44 41.73 189.35 40.53 C 185.58 39.64 183.20 35.58 183.97 31.84 C 184.63 26.83 188.66 23.28 192.55 20.52 Z" />
<path fill="#363636" d=" M 177.33 24.20 C 178.93 23.56 179.80 25.22 180.85 26.07 C 177.52 27.41 174.05 28.91 170.40 28.75 C 170.13 28.27 169.60 27.32 169.34 26.85 C 171.62 25.09 174.59 24.72 177.33 24.20 Z" />
<path fill="#ffffff" d=" M 193.36 24.45 C 195.79 23.14 198.57 24.67 201.12 23.91 C 203.07 22.86 204.97 24.48 205.82 26.16 C 207.08 29.27 205.52 32.98 202.72 34.67 C 198.99 37.32 194.22 37.82 189.78 37.24 C 188.33 36.86 187.32 35.54 187.24 34.05 C 187.01 30.00 189.68 26.05 193.36 24.45 Z" />
<path fill="#363636" d=" M 220.60 36.37 C 218.84 35.09 219.29 33.04 220.56 31.61 C 222.46 33.52 224.56 35.21 226.56 37.00 C 226.03 40.55 221.96 38.02 220.60 36.37 Z" />
<path fill="#363636" d=" M 172.77 42.86 C 174.68 41.10 176.71 39.46 179.01 38.25 C 179.33 38.88 179.97 40.15 180.29 40.78 C 178.50 42.31 176.79 43.95 174.84 45.29 C 173.95 44.66 173.42 43.70 172.77 42.86 Z" />
<path fill="#363636" d=" M 194.01 51.38 C 198.69 51.72 203.20 49.85 207.88 50.24 C 210.12 58.57 209.71 67.46 210.34 76.04 C 211.16 85.02 210.33 94.06 211.30 103.03 C 211.38 116.24 212.27 129.85 208.28 142.64 C 205.13 143.37 205.49 139.99 205.09 137.94 C 203.72 127.00 202.34 116.07 201.39 105.09 C 200.36 98.09 200.53 90.72 197.55 84.16 C 197.68 83.61 197.95 82.51 198.09 81.96 C 197.84 80.68 197.59 79.39 197.33 78.11 C 194.47 77.39 195.40 75.07 196.31 73.06 C 196.00 69.82 195.12 66.67 194.50 63.48 C 193.85 62.71 193.20 61.93 192.55 61.15 C 193.04 60.68 194.01 59.73 194.49 59.25 C 192.69 57.43 190.98 55.53 189.27 53.63 C 190.66 52.56 192.08 51.18 194.01 51.38 Z" />
<path fill="#f2d048" d=" M 17.21 65.19 C 28.53 53.27 46.07 48.97 62.00 51.39 C 72.35 52.51 81.97 57.29 89.90 63.91 C 84.92 69.74 80.04 75.67 75.10 81.54 C 69.09 76.80 61.89 73.00 54.04 73.15 C 46.73 72.70 39.50 76.26 35.10 82.05 C 29.00 89.99 28.27 101.41 32.66 110.32 C 35.96 116.91 42.59 121.66 49.87 122.78 C 56.47 123.95 63.40 122.74 69.21 119.40 C 69.15 115.78 69.15 112.17 69.15 108.55 C 63.13 108.50 57.11 108.52 51.10 108.52 C 51.10 102.41 51.10 96.30 51.09 90.18 C 65.11 90.21 79.12 90.12 93.13 90.23 C 93.13 102.49 93.11 114.76 93.17 127.02 C 93.07 128.63 93.35 130.66 91.75 131.67 C 80.64 140.58 66.21 144.99 52.02 144.53 C 37.86 144.49 23.43 138.67 14.35 127.59 C -0.34 110.00 0.76 81.29 17.21 65.19 Z" />
<path fill="#363636" d=" M 107.42 142.89 C 107.41 112.76 107.42 82.64 107.42 52.51 C 120.29 52.54 133.16 52.50 146.03 52.53 C 156.02 52.71 166.68 54.75 174.38 61.57 C 188.46 73.74 187.15 99.13 171.76 109.68 C 160.48 117.91 145.85 117.28 132.58 117.17 C 132.58 125.74 132.59 134.31 132.58 142.87 C 124.19 142.86 115.81 142.84 107.42 142.89 Z" />
<path fill="#363636" d=" M 230.39 142.89 C 230.38 112.76 230.39 82.64 230.39 52.51 C 238.22 52.54 246.05 52.49 253.88 52.54 C 266.33 68.46 278.72 84.42 291.27 100.25 C 291.27 84.34 291.27 68.43 291.27 52.52 C 299.47 52.52 307.68 52.53 315.88 52.52 C 316.19 82.62 315.85 112.72 316.08 142.82 C 308.73 142.89 301.39 142.87 294.05 142.84 C 281.22 126.29 268.22 109.89 255.41 93.33 C 255.32 109.83 255.39 126.33 255.37 142.84 C 247.05 142.90 238.72 142.82 230.39 142.89 Z" />
<path fill="#ffffff" d=" M 198.98 54.45 C 201.09 54.08 203.19 53.73 205.31 53.41 C 206.13 58.91 206.73 64.46 206.75 70.03 C 207.07 77.98 208.02 85.93 207.29 93.89 C 206.83 94.07 205.91 94.43 205.45 94.62 C 204.89 95.38 204.33 96.15 203.77 96.92 C 203.55 95.30 203.35 93.67 203.16 92.04 C 204.19 91.01 205.23 89.97 206.29 88.96 C 206.28 87.58 206.26 86.20 206.23 84.82 C 204.93 85.76 203.72 86.79 202.49 87.81 C 202.25 86.49 202.00 85.17 201.75 83.85 C 202.89 82.13 205.41 80.73 204.70 78.35 C 203.29 77.68 202.00 78.64 200.73 79.13 C 200.64 77.85 200.54 76.57 200.45 75.30 C 201.90 74.11 203.43 73.00 204.75 71.66 C 205.08 70.52 203.99 69.71 203.53 68.80 C 202.08 69.84 200.63 70.89 199.16 71.91 C 198.75 68.81 200.71 66.45 202.80 64.44 C 202.67 63.91 202.41 62.85 202.29 62.32 C 201.33 62.42 199.43 62.61 198.47 62.71 C 198.31 59.11 203.85 59.41 203.49 55.96 C 201.52 54.08 199.01 57.04 197.17 57.99 C 197.79 56.82 198.40 55.64 198.98 54.45 Z" />
<path fill="#ffffff" d=" M 132.58 73.53 C 139.51 73.90 146.97 72.32 153.42 75.58 C 160.79 79.34 160.68 91.59 153.39 95.39 C 147.00 98.87 139.50 97.05 132.58 97.51 C 132.58 89.51 132.58 81.52 132.58 73.53 Z" />
<path fill="#ffffff" d=" M 204.17 103.41 C 205.23 101.27 206.35 99.16 207.47 97.05 C 207.70 99.22 207.92 101.38 208.14 103.55 C 206.82 103.47 205.50 103.42 204.17 103.41 Z" />
<path fill="#ffffff" d=" M 205.15 109.61 C 206.12 108.19 207.10 106.78 208.07 105.36 C 207.82 113.23 208.87 121.24 207.16 128.99 C 206.69 124.34 206.33 119.68 205.89 115.02 C 206.50 113.75 207.47 112.56 207.48 111.08 C 206.90 110.71 205.73 109.98 205.15 109.61 Z" />
</svg>
