<?xml version="1.0" encoding="UTF-8" standalone="no"?>
<svg
   xmlns:dc="http://purl.org/dc/elements/1.1/"
   xmlns:cc="http://creativecommons.org/ns#"
   xmlns:rdf="http://www.w3.org/1999/02/22-rdf-syntax-ns#"
   xmlns:svg="http://www.w3.org/2000/svg"
   xmlns="http://www.w3.org/2000/svg"
   xmlns:sodipodi="http://sodipodi.sourceforge.net/DTD/sodipodi-0.dtd"
   xmlns:inkscape="http://www.inkscape.org/namespaces/inkscape"
   version="1.1"
   viewBox="0 0 100 125"
   xml:space="preserve"
   x="0px"
   y="0px"
   id="svg2"
   inkscape:version="0.91 r13725"
   sodipodi:docname="noun_406681_cc.svg"><metadata
     id="metadata14"><rdf:RDF><cc:Work
         rdf:about=""><dc:format>image/svg+xml</dc:format><dc:type
           rdf:resource="http://purl.org/dc/dcmitype/StillImage" /></cc:Work></rdf:RDF></metadata><defs
     id="defs12" /><sodipodi:namedview
     pagecolor="#ffffff"
     bordercolor="#666666"
     borderopacity="1"
     objecttolerance="10"
     gridtolerance="10"
     guidetolerance="10"
     inkscape:pageopacity="0"
     inkscape:pageshadow="2"
     inkscape:window-width="1353"
     inkscape:window-height="762"
     id="namedview10"
     showgrid="false"
     inkscape:zoom="1.888"
     inkscape:cx="58.416309"
     inkscape:cy="62.5"
     inkscape:window-x="0"
     inkscape:window-y="23"
     inkscape:window-maximized="0"
     inkscape:current-layer="svg2" /><path
     d="m 27.65625,1.8220339 c -0.585425,0 -1.0625,0.4771639 -1.0625,1.0625 l 0,2.5 c -1.796373,0.3727769 -3.485166,1.058055 -4.96875,2.03125 l -1.75,-1.75 c -0.413958,-0.4139403 -1.086042,-0.4139403 -1.5,0 l -2.65625,2.65625 c -0.41394,0.41394 -0.41394,1.08606 0,1.5 l 1.75,1.7500001 c -0.973709,1.483656 -1.689528,3.17211 -2.0625,4.96875 l -2.46875,0 c -0.585443,0 -1.0625,0.477164 -1.0625,1.0625 l 0,3.78125 c 0,0.585336 0.477057,1.03125 1.0625,1.03125 l 2.46875,0 c 0.372777,1.796994 1.088756,3.48474 2.0625,4.96875 l -1.75,1.75 c -0.41394,0.413763 -0.41394,1.08606 0,1.5 l 2.65625,2.6875 c 0.413958,0.414118 1.086042,0.414118 1.5,0 l 1.75,-1.78125 c 1.483957,0.973904 3.171773,1.689723 4.96875,2.0625 l 0,2.5 c 0,0.585514 0.477075,1.03125 1.0625,1.03125 l 3.78125,0 c 0.585424,0 1.03125,-0.445736 1.03125,-1.03125 l 0,-2.5 c 1.796586,-0.373132 3.485112,-1.088951 4.96875,-2.0625 l 1.75,1.78125 c 0.413958,0.414118 1.086042,0.414118 1.5,0 l 2.6875,-2.6875 c 0.413941,-0.41394 0.413941,-1.086237 0,-1.5 l -1.78125,-1.75 c 0.97323,-1.483656 1.689865,-3.172288 2.0625,-4.96875 l 2.5,0 c 0.585425,0 1.03125,-0.445914 1.03125,-1.03125 l 0,-3.78125 c 0,-0.585336 -0.445825,-1.0625 -1.03125,-1.0625 l -2.5,0 c -0.372901,-1.796285 -1.089146,-3.485449 -2.0625,-4.96875 L 43.375,9.8220339 c 0.413941,-0.41394 0.413941,-1.08606 0,-1.5 l -2.6875,-2.65625 c -0.413958,-0.4139403 -1.086042,-0.4139403 -1.5,0 l -1.75,1.75 C 35.954128,6.4424115 34.264928,5.7574882 32.46875,5.3845339 l 0,-2.5 c 0,-0.5853361 -0.445826,-1.0625 -1.03125,-1.0625 l -3.78125,0 z m 1.875,7.53125 c 5.600544,0 10.15625,4.5244741 10.15625,10.1250001 0,5.600526 -4.555706,10.15625 -10.15625,10.15625 -5.600543,0 -10.125,-4.555724 -10.125,-10.15625 0,-5.600526 4.524457,-10.1250001 10.125,-10.1250001 z M 51,13.353284 c -0.611702,0.01065 -1.230398,0.02329 -1.84375,0.0625 0.592965,1.918001 0.90625,3.949684 0.90625,6.0625 0,11.334478 -9.196772,20.53125 -20.53125,20.53125 -3.457014,0 -6.704573,-0.834012 -9.5625,-2.34375 -0.311103,3.352332 -0.0115,6.771691 0.875,10 2.065567,7.521365 7.059874,13.763253 9.6875,21.03125 1.325762,3.667089 0.179311,7.650266 -1.125,11.15625 -0.847309,2.277825 -1.976187,8.254465 -2.78125,11.96875 l 39,0 c -0.170456,-2.696556 -0.400308,-7.350937 0.71875,-7.46875 3.736339,-0.393891 7.880035,0.102613 11.15625,-2.125 2.863214,-1.946389 3.662319,-5.651704 3.4375,-8.9375 -0.04177,-0.610708 -0.354156,-1.32974 0.28125,-1.84375 1.031551,-0.834268 1.153407,-2.19626 0.5625,-3.75 1.339194,-0.964146 2.021698,-3.156026 0.96875,-4.5625 -0.162116,-0.21664 -0.660346,-0.708859 -0.0625,-0.78125 2.163562,-0.261884 4.703708,-1.363721 5.3125,-3.6875 0.581877,-2.221226 -1.081145,-4.207596 -2.1875,-5.96875 -1.43559,-2.285277 -3.821399,-4.064045 -4.5625,-6.6875 -0.573324,-2.029248 0.397086,-4.129554 0.125,-6.25 -1.948715,-15.186093 -10.935654,-26.3862 -29.5,-26.40625 -0.294673,0 -0.575483,-0.0053 -0.875,0 z"
     style="overflow:visible;fill:#000000;fill-opacity:1;fill-rule:evenodd;stroke:none"
     overflow="visible"
     id="path4"
     inkscape:connector-curvature="0" /><text
     xml:space="preserve"
     style="font-style:normal;font-variant:normal;font-weight:normal;font-stretch:normal;font-size:40px;line-height:125%;font-family:'Helvetica Neue';-inkscape-font-specification:'Helvetica Neue, Normal';text-align:start;letter-spacing:0px;word-spacing:0px;writing-mode:lr-tb;text-anchor:start;fill:#000000;fill-opacity:1;stroke:none;stroke-width:1px;stroke-linecap:butt;stroke-linejoin:miter;stroke-opacity:1"
     x="11.652542"
     y="124.47034"
     id="text3333"
     sodipodi:linespacing="125%"><tspan
       sodipodi:role="line"
       id="tspan3335"
       x="11.652542"
       y="124.47034">MIR</tspan></text>
<text
     xml:space="preserve"
     style="font-style:normal;font-variant:normal;font-weight:normal;font-stretch:normal;font-size:15px;line-height:125%;font-family:'Helvetica Neue';-inkscape-font-specification:'Helvetica Neue, Normal';text-align:start;letter-spacing:0px;word-spacing:0px;writing-mode:lr-tb;text-anchor:start;fill:#000000;fill-opacity:1;stroke:none;stroke-width:1px;stroke-linecap:butt;stroke-linejoin:miter;stroke-opacity:1"
     x="-123.93128"
     y="98.506691"
     id="text3337"
     sodipodi:linespacing="125%"
     transform="matrix(0,-1,1,0,0,0)"><tspan
       sodipodi:role="line"
       id="tspan3339"
       x="-123.93128"
       y="98.506691">PUCRS</tspan></text>
</svg>