<?xml version="1.0" encoding="UTF-8" standalone="no"?>
<svg
   xmlns:dc="http://purl.org/dc/elements/1.1/"
   xmlns:cc="http://creativecommons.org/ns#"
   xmlns:rdf="http://www.w3.org/1999/02/22-rdf-syntax-ns#"
   xmlns:svg="http://www.w3.org/2000/svg"
   xmlns="http://www.w3.org/2000/svg"
   xmlns:sodipodi="http://sodipodi.sourceforge.net/DTD/sodipodi-0.dtd"
   xmlns:inkscape="http://www.inkscape.org/namespaces/inkscape"
   version="1.1"
   x="0px"
   y="0px"
   viewBox="0 0 100 125"
   enable-background="new 0 0 100 100"
   xml:space="preserve"
   id="svg2"
   inkscape:version="0.91 r13725"
   sodipodi:docname="mir2.svg"><metadata
     id="metadata20"><rdf:RDF><cc:Work
         rdf:about=""><dc:format>image/svg+xml</dc:format><dc:type
           rdf:resource="http://purl.org/dc/dcmitype/StillImage" /></cc:Work></rdf:RDF></metadata><defs
     id="defs18" /><sodipodi:namedview
     pagecolor="#ffffff"
     bordercolor="#666666"
     borderopacity="1"
     objecttolerance="10"
     gridtolerance="10"
     guidetolerance="10"
     inkscape:pageopacity="0"
     inkscape:pageshadow="2"
     inkscape:window-width="1216"
     inkscape:window-height="754"
     id="namedview16"
     showgrid="false"
     inkscape:zoom="1.888"
     inkscape:cx="108.46928"
     inkscape:cy="62.5"
     inkscape:window-x="0"
     inkscape:window-y="0"
     inkscape:window-maximized="0"
     inkscape:current-layer="svg2" /><g
     id="g4"><circle
       cx="44.34003"
       cy="33.31693"
       r="4.49997"
       id="circle6" /><path
       d="M75.547,38.75024c-1.96429-9.66058-4.97876-19.0495-14.16333-24.01532c-8.83093-4.77466-20.52045-4.90082-28.89502,0.94995   c-14.10071,9.8512-14.66595,32.49615-6.4433,46.22974c0.56317,0.94055,1.46545,2.15326,1.45715,3.30206   c0,0.00549,0.00909,22.89087,0.00909,22.89087h31.21735V73.06982c9.50073,1.31238,14.59686-2.0293,14.59686-2.0293   l0.60797-13.34259l6.85046-1.0025C80.34302,56.75995,75.87427,40.35974,75.547,38.75024z M47.44147,42.88293l-0.80017,4.00085   h-4.80109l-0.80017-4.00085l-3.51453-2.02905l-3.86487,1.3075l-2.40051-4.15784l3.0647-2.69342v-4.05823l-3.0647-2.69342   l2.40051-4.15771l3.86487,1.30743l3.51453-2.02917L41.84021,19.75h4.80109l0.80017,3.92902l3.51453,2.02917l3.86493-1.30743   l2.40045,4.15771l-3.0647,2.69342l0.19855,3.89685l3.06482,2.69342l-2.40045,4.15771l-3.86499-1.30743L47.44147,42.88293z    M67.47894,57.64148l-2.56531-0.8678l-2.46448,1.45392l-0.53107,2.6554h-3.18652l-0.53113-2.6554l-2.3327-1.34674l-2.56519,0.8678   l-1.59326-2.75958l2.03412-1.78778v-2.69354l-2.03412-1.7876l1.59326-2.75958l2.56519,0.86774l2.3327-1.34674l0.53113-2.60785   h3.18652l0.53107,2.60785l2.3327,1.34674l2.56525-0.86774l1.5932,2.75958l-2.03406,1.7876l0.13184,2.58649l2.03412,1.78766   L67.47894,57.64148z"
       id="path8" /><circle
       cx="60.39069"
       cy="51.87836"
       r="2.5"
       id="circle10" /></g><text
     xml:space="preserve"
     style="font-style:normal;font-variant:normal;font-weight:normal;font-stretch:normal;font-size:40px;line-height:125%;font-family:'Helvetica Neue';-inkscape-font-specification:'Helvetica Neue, Normal';text-align:start;letter-spacing:0px;word-spacing:0px;writing-mode:lr-tb;text-anchor:start;fill:#000000;fill-opacity:1;stroke:none;stroke-width:1px;stroke-linecap:butt;stroke-linejoin:miter;stroke-opacity:1"
     x="6.3559322"
     y="121.82204"
     id="text3359"
     sodipodi:linespacing="125%"><tspan
       sodipodi:role="line"
       id="tspan3361"
       x="6.3559322"
       y="121.82204">MIR</tspan></text>
<text
     xml:space="preserve"
     style="font-style:normal;font-variant:normal;font-weight:normal;font-stretch:normal;font-size:15px;line-height:125%;font-family:'Helvetica Neue';-inkscape-font-specification:'Helvetica Neue, Normal';text-align:start;letter-spacing:0px;word-spacing:0px;writing-mode:lr-tb;text-anchor:start;fill:#000000;fill-opacity:1;stroke:none;stroke-width:1px;stroke-linecap:butt;stroke-linejoin:miter;stroke-opacity:1"
     x="-122.60829"
     y="93.27758"
     id="text3363"
     sodipodi:linespacing="125%"
     transform="matrix(0,-1,1,0,0,0)"><tspan
       sodipodi:role="line"
       id="tspan3365"
       x="-122.60829"
       y="93.27758">PUCRS</tspan></text>
</svg>